<?xml version="1.0" encoding="utf-8"?>
<COLLADA xmlns="http://www.collada.org/2005/11/COLLADASchema" version="1.4.1" xmlns:xsi="http://www.w3.org/2001/XMLSchema-instance">
  <asset>
    <contributor>
      <author>Blender User</author>
      <authoring_tool>Blender 4.5.1 LTS commit date:2025-07-29, commit time:05:31, hash:b0a72b245dcf</authoring_tool>
    </contributor>
    <created>2025-08-08T16:02:43</created>
    <modified>2025-08-08T16:02:43</modified>
    <unit name="meter" meter="1"/>
    <up_axis>Z_UP</up_axis>
  </asset>
  <library_effects>
    <effect id="AlleyMaterial_009-effect">
      <profile_COMMON>
        <technique sid="common">
          <lambert>
            <emission>
              <color sid="emission">0 0 0 1</color>
            </emission>
            <diffuse>
              <color sid="diffuse">0.5 0.5 0.5 1</color>
            </diffuse>
            <reflectivity>
              <float sid="specular">0.5</float>
            </reflectivity>
          </lambert>
        </technique>
      </profile_COMMON>
    </effect>
    <effect id="RampMaterial_009-effect">
      <profile_COMMON>
        <technique sid="common">
          <lambert>
            <emission>
              <color sid="emission">0 0 0 1</color>
            </emission>
            <diffuse>
              <color sid="diffuse">0.7 0.4 0.2 1</color>
            </diffuse>
            <reflectivity>
              <float sid="specular">0.5</float>
            </reflectivity>
          </lambert>
        </technique>
      </profile_COMMON>
    </effect>
  </library_effects>
  <library_images/>
  <library_materials>
    <material id="AlleyMaterial_009-material" name="AlleyMaterial.009">
      <instance_effect url="#AlleyMaterial_009-effect"/>
    </material>
    <material id="RampMaterial_009-material" name="RampMaterial.009">
      <instance_effect url="#RampMaterial_009-effect"/>
    </material>
  </library_materials>
  <library_geometries>
    <geometry id="Cube_021-mesh" name="Cube.021">
      <mesh>
        <source id="Cube_021-mesh-positions">
          <float_array id="Cube_021-mesh-positions-array" count="54">-1 -1 -1 -1 -1 1 1 -1 -1 1 -1 1 1 1 -1 1 1 1 -1 -1 -1 -1 -1 1 1 1 -1 1 -1 -1 -3.914303 1 -1 -3.914303 -1 -1 -3.914303 -1 1 -3.914303 1 1 1 4.110674 -1 1 4.110674 1 -3.914303 4.110674 1 -3.914303 4.110674 -1</float_array>
          <technique_common>
            <accessor source="#Cube_021-mesh-positions-array" count="18" stride="3">
              <param name="X" type="float"/>
              <param name="Y" type="float"/>
              <param name="Z" type="float"/>
            </accessor>
          </technique_common>
        </source>
        <source id="Cube_021-mesh-normals">
          <float_array id="Cube_021-mesh-normals-array" count="54">0 0 1 0 0 1 0 -1 0 1 0 0 -1 0 0 0 0 1 0 0 1 0 0 1 0 -1 0 0 -1 0 0 -1 0 0 0 1 1 0 0 1 0 0 1 0 0 -1 0 0 -1 0 0 -1 0 0</float_array>
          <technique_common>
            <accessor source="#Cube_021-mesh-normals-array" count="18" stride="3">
              <param name="X" type="float"/>
              <param name="Y" type="float"/>
              <param name="Z" type="float"/>
            </accessor>
          </technique_common>
        </source>
        <source id="Cube_021-mesh-map-0">
          <float_array id="Cube_021-mesh-map-0-array" count="108">0.375 0.75 0.375 0.5 0.375 0.5 0.375 1 0.375 0.75 0.375 0.75 0.375 0.75 0.625 0.75 0.375 1 0.625 0.5 0.375 0.5 0.625 0.5 0.625 0.25 0.375 0.25 0.375 0.25 0.375 0.75 0.375 0.75 0.375 0.5 0.375 1 0.375 1 0.375 0.75 0.625 0.75 0.625 1 0.625 1 0.625 1 0.625 1 0.375 1 0.625 0.75 0.625 1 0.375 1 0.625 1 0.375 1 0.375 1 0.375 1 0.375 1 0.375 0.75 0.625 0.5 0.625 0.75 0.375 0.75 0.375 0.5 0.375 0.5 0.625 0.5 0.625 0.5 0.375 0.75 0.375 0.5 0.375 0.25 0.375 0 0.625 0 0.625 0.25 0.625 0.25 0.375 0.25 0.375 0.25 0.625 0 0.625 0.25</float_array>
          <technique_common>
            <accessor source="#Cube_021-mesh-map-0-array" count="54" stride="2">
              <param name="S" type="float"/>
              <param name="T" type="float"/>
            </accessor>
          </technique_common>
        </source>
        <vertices id="Cube_021-mesh-vertices">
          <input semantic="POSITION" source="#Cube_021-mesh-positions"/>
        </vertices>
        <triangles count="18">
          <input semantic="VERTEX" source="#Cube_021-mesh-vertices" offset="0"/>
          <input semantic="NORMAL" source="#Cube_021-mesh-normals" offset="1"/>
          <input semantic="TEXCOORD" source="#Cube_021-mesh-map-0" offset="2" set="0"/>
          <p>2 0 0 8 0 1 4 0 2 0 1 3 9 1 4 2 1 5 2 2 6 3 2 7 6 2 8 5 3 9 4 3 10 15 3 11 13 4 12 17 4 13 10 4 14 2 5 15 9 5 16 8 5 17 0 6 18 6 6 19 9 6 20 3 7 21 1 7 22 7 7 23 7 8 24 12 8 25 11 8 26 3 9 27 7 9 28 6 9 29 7 10 30 11 10 31 6 10 32 6 11 33 0 11 34 2 11 35 5 12 36 3 12 37 2 12 38 4 13 39 14 13 40 15 13 41 5 14 42 2 14 43 4 14 44 10 15 45 11 15 46 12 15 47 13 16 48 16 16 49 17 16 50 10 17 51 12 17 52 13 17 53</p>
        </triangles>
      </mesh>
    </geometry>
    <geometry id="Cube_020-mesh" name="Cube.020">
      <mesh>
        <source id="Cube_020-mesh-positions">
          <float_array id="Cube_020-mesh-positions-array" count="24">-0.5 -0.5 -0.5 -0.5 -0.5 0.5 -0.5 0.5 -0.5 -0.5 0.5 0.5 0.5 -0.5 -0.5 0.5 -0.5 0.5 0.5 0.5 -0.5 0.5 0.5 0.5</float_array>
          <technique_common>
            <accessor source="#Cube_020-mesh-positions-array" count="8" stride="3">
              <param name="X" type="float"/>
              <param name="Y" type="float"/>
              <param name="Z" type="float"/>
            </accessor>
          </technique_common>
        </source>
        <source id="Cube_020-mesh-normals">
          <float_array id="Cube_020-mesh-normals-array" count="36">-1 0 0 0 1 0 1 0 0 0 -1 0 0 0 -1 0 0 1 -1 0 0 0 1 0 1 0 0 0 -1 0 0 0 -1 0 0 1</float_array>
          <technique_common>
            <accessor source="#Cube_020-mesh-normals-array" count="12" stride="3">
              <param name="X" type="float"/>
              <param name="Y" type="float"/>
              <param name="Z" type="float"/>
            </accessor>
          </technique_common>
        </source>
        <source id="Cube_020-mesh-map-0">
          <float_array id="Cube_020-mesh-map-0-array" count="72">0.625 0 0.375 0.25 0.375 0 0.625 0.25 0.375 0.5 0.375 0.25 0.625 0.5 0.375 0.75 0.375 0.5 0.625 0.75 0.375 1 0.375 0.75 0.375 0.5 0.125 0.75 0.125 0.5 0.875 0.5 0.625 0.75 0.625 0.5 0.625 0 0.625 0.25 0.375 0.25 0.625 0.25 0.625 0.5 0.375 0.5 0.625 0.5 0.625 0.75 0.375 0.75 0.625 0.75 0.625 1 0.375 1 0.375 0.5 0.375 0.75 0.125 0.75 0.875 0.5 0.875 0.75 0.625 0.75</float_array>
          <technique_common>
            <accessor source="#Cube_020-mesh-map-0-array" count="36" stride="2">
              <param name="S" type="float"/>
              <param name="T" type="float"/>
            </accessor>
          </technique_common>
        </source>
        <vertices id="Cube_020-mesh-vertices">
          <input semantic="POSITION" source="#Cube_020-mesh-positions"/>
        </vertices>
        <triangles material="AlleyMaterial_009-material" count="12">
          <input semantic="VERTEX" source="#Cube_020-mesh-vertices" offset="0"/>
          <input semantic="NORMAL" source="#Cube_020-mesh-normals" offset="1"/>
          <input semantic="TEXCOORD" source="#Cube_020-mesh-map-0" offset="2" set="0"/>
          <p>1 0 0 2 0 1 0 0 2 3 1 3 6 1 4 2 1 5 7 2 6 4 2 7 6 2 8 5 3 9 0 3 10 4 3 11 6 4 12 0 4 13 2 4 14 3 5 15 5 5 16 7 5 17 1 6 18 3 6 19 2 6 20 3 7 21 7 7 22 6 7 23 7 8 24 5 8 25 4 8 26 5 9 27 1 9 28 0 9 29 6 10 30 4 10 31 0 10 32 3 11 33 1 11 34 5 11 35</p>
        </triangles>
      </mesh>
    </geometry>
    <geometry id="Cube_019-mesh" name="Cube.019">
      <mesh>
        <source id="Cube_019-mesh-positions">
          <float_array id="Cube_019-mesh-positions-array" count="24">-0.5 -0.5 -0.5 -0.5 -0.5 0.5 -0.5 0.5 -0.5 -0.5 0.5 0.5 0.5 -0.5 -0.5 0.5 -0.5 0.5 0.5 0.5 -0.5 0.5 0.5 0.5</float_array>
          <technique_common>
            <accessor source="#Cube_019-mesh-positions-array" count="8" stride="3">
              <param name="X" type="float"/>
              <param name="Y" type="float"/>
              <param name="Z" type="float"/>
            </accessor>
          </technique_common>
        </source>
        <source id="Cube_019-mesh-normals">
          <float_array id="Cube_019-mesh-normals-array" count="36">-1 0 0 0 1 0 1 0 0 0 -1 0 0 0 -1 0 0 1 -1 0 0 0 1 0 1 0 0 0 -1 0 0 0 -1 0 0 1</float_array>
          <technique_common>
            <accessor source="#Cube_019-mesh-normals-array" count="12" stride="3">
              <param name="X" type="float"/>
              <param name="Y" type="float"/>
              <param name="Z" type="float"/>
            </accessor>
          </technique_common>
        </source>
        <source id="Cube_019-mesh-map-0">
          <float_array id="Cube_019-mesh-map-0-array" count="72">0.625 0 0.375 0.25 0.375 0 0.625 0.25 0.375 0.5 0.375 0.25 0.625 0.5 0.375 0.75 0.375 0.5 0.625 0.75 0.375 1 0.375 0.75 0.375 0.5 0.125 0.75 0.125 0.5 0.875 0.5 0.625 0.75 0.625 0.5 0.625 0 0.625 0.25 0.375 0.25 0.625 0.25 0.625 0.5 0.375 0.5 0.625 0.5 0.625 0.75 0.375 0.75 0.625 0.75 0.625 1 0.375 1 0.375 0.5 0.375 0.75 0.125 0.75 0.875 0.5 0.875 0.75 0.625 0.75</float_array>
          <technique_common>
            <accessor source="#Cube_019-mesh-map-0-array" count="36" stride="2">
              <param name="S" type="float"/>
              <param name="T" type="float"/>
            </accessor>
          </technique_common>
        </source>
        <vertices id="Cube_019-mesh-vertices">
          <input semantic="POSITION" source="#Cube_019-mesh-positions"/>
        </vertices>
        <triangles material="RampMaterial_009-material" count="12">
          <input semantic="VERTEX" source="#Cube_019-mesh-vertices" offset="0"/>
          <input semantic="NORMAL" source="#Cube_019-mesh-normals" offset="1"/>
          <input semantic="TEXCOORD" source="#Cube_019-mesh-map-0" offset="2" set="0"/>
          <p>1 0 0 2 0 1 0 0 2 3 1 3 6 1 4 2 1 5 7 2 6 4 2 7 6 2 8 5 3 9 0 3 10 4 3 11 6 4 12 0 4 13 2 4 14 3 5 15 5 5 16 7 5 17 1 6 18 3 6 19 2 6 20 3 7 21 7 7 22 6 7 23 7 8 24 5 8 25 4 8 26 5 9 27 1 9 28 0 9 29 6 10 30 4 10 31 0 10 32 3 11 33 1 11 34 5 11 35</p>
        </triangles>
      </mesh>
    </geometry>
  </library_geometries>
  <library_visual_scenes>
    <visual_scene id="Scene" name="Scene">
      <node id="Cube" name="Cube" type="NODE">
        <matrix sid="transform">1 0 0 0 0 1 0 2.434144 0 0 1 0.913685 0 0 0 1</matrix>
        <instance_geometry url="#Cube_021-mesh" name="Cube"/>
      </node>
      <node id="Alley" name="Alley" type="NODE">
        <matrix sid="transform">1 0 0 -1.754948 0 0.5 0 4.253036 0 0 0.025 0.1175682 0 0 0 1</matrix>
        <instance_geometry url="#Cube_020-mesh" name="Alley">
          <bind_material>
            <technique_common>
              <instance_material symbol="AlleyMaterial_009-material" target="#AlleyMaterial_009-material">
                <bind_vertex_input semantic="UVMap" input_semantic="TEXCOORD" input_set="0"/>
              </instance_material>
            </technique_common>
          </bind_material>
        </instance_geometry>
      </node>
      <node id="Ramp" name="Ramp" type="NODE">
        <matrix sid="transform">0.9659258 0 0.006470476 -0.7733376 0 0.5 0 4.256091 -0.258819 0 0.02414815 -0.01182212 0 0 0 1</matrix>
        <instance_geometry url="#Cube_019-mesh" name="Ramp">
          <bind_material>
            <technique_common>
              <instance_material symbol="RampMaterial_009-material" target="#RampMaterial_009-material">
                <bind_vertex_input semantic="UVMap" input_semantic="TEXCOORD" input_set="0"/>
              </instance_material>
            </technique_common>
          </bind_material>
        </instance_geometry>
      </node>
    </visual_scene>
  </library_visual_scenes>
  <scene>
    <instance_visual_scene url="#Scene"/>
  </scene>
</COLLADA>